<svg
    width="28"
    height="22"
    viewBox="0 0 28 22"
    fill="none"
    xmlns="http://www.w3.org/2000/svg"
  >
    <path
      d="M23.4367 2.57618C23.429 2.56136 23.4164 2.54976 23.4009 2.54344C21.6178 1.72529 19.736 1.14189 17.8027 0.807833C17.7667 0.801135 17.7304 0.818291 17.7128 0.850397C17.4565 1.31547 17.2239 1.79317 17.0158 2.28169C14.9319 1.96534 12.8121 1.96534 10.7282 2.28169C10.5187 1.79193 10.2824 1.31411 10.0202 0.850397C10.0019 0.819063 9.96612 0.802178 9.93024 0.807833C7.99678 1.14119 6.11487 1.72464 4.33193 2.54348C4.31668 2.54995 4.30377 2.561 4.29507 2.5751C0.729525 7.89978 -0.247214 13.0935 0.231941 18.223C0.234663 18.2484 0.247578 18.2716 0.267723 18.2873C2.34391 19.8246 4.66613 20.998 7.13534 21.7574C7.17094 21.7681 7.20943 21.7555 7.23184 21.7258C7.76217 21.0042 8.23206 20.2401 8.6368 19.4413C8.64807 19.4191 8.64928 19.3932 8.64016 19.37C8.63104 19.3469 8.61247 19.3288 8.58913 19.3202C7.84814 19.0367 7.13071 18.6949 6.44369 18.2981C6.41834 18.2831 6.40211 18.2566 6.40038 18.2272C6.3986 18.1979 6.41165 18.1696 6.43504 18.1518C6.5792 18.0438 6.72345 17.9315 6.86111 17.818C6.88604 17.7975 6.92046 17.7929 6.94998 17.806C11.451 19.8602 16.324 19.8602 20.7718 17.806C20.8014 17.792 20.8364 17.7962 20.8617 17.8169C20.9994 17.9304 21.1437 18.0438 21.2889 18.1518C21.3124 18.1694 21.3257 18.1976 21.3241 18.227C21.3226 18.2563 21.3065 18.283 21.2813 18.2981C20.5958 18.6982 19.8778 19.0398 19.1348 19.3191C19.1115 19.328 19.0931 19.3464 19.0841 19.3698C19.0752 19.393 19.0767 19.4191 19.0881 19.4413C19.4995 20.2357 19.9688 20.9988 20.4919 21.7246C20.5137 21.7551 20.5526 21.7683 20.5884 21.7573C23.062 21.0004 25.3884 19.8269 27.4672 18.2873C27.4876 18.2724 27.5007 18.2493 27.5029 18.2241C28.0766 12.2939 26.5426 7.1427 23.4367 2.57618ZM9.30899 15.0997C7.95385 15.0997 6.83725 13.8561 6.83725 12.3288C6.83725 10.8016 7.93219 9.55788 9.30899 9.55788C10.6965 9.55788 11.8023 10.8124 11.7807 12.3287C11.7807 13.8561 10.6857 15.0997 9.30899 15.0997ZM18.4477 15.0997C17.0926 15.0997 15.976 13.8561 15.976 12.3288C15.976 10.8016 17.071 9.55788 18.4477 9.55788C19.8354 9.55788 20.9411 10.8124 20.9195 12.3287C20.9195 13.8561 19.8354 15.0997 18.4477 15.0997Z"
      fill="#000000"
    />
  </svg>