<svg
    width="27"
    height="27"
    viewBox="0 0 27 27"
    fill="none"
    xmlns="http://www.w3.org/2000/svg"
  >
    <path
      d="M13.2675 6.84887C9.62846 6.84887 6.69321 9.78411 6.69321 13.4231C6.69321 17.0621 9.62846 19.9974 13.2675 19.9974C16.9065 19.9974 19.8417 17.0621 19.8417 13.4231C19.8417 9.78411 16.9065 6.84887 13.2675 6.84887ZM13.2675 17.6973C10.9158 17.6973 8.99335 15.7805 8.99335 13.4231C8.99335 11.0658 10.9101 9.149 13.2675 9.149C15.6248 9.149 17.5416 11.0658 17.5416 13.4231C17.5416 15.7805 15.6191 17.6973 13.2675 17.6973ZM21.6441 6.57995C21.6441 7.43248 20.9575 8.11337 20.1107 8.11337C19.2581 8.11337 18.5772 7.42676 18.5772 6.57995C18.5772 5.73313 19.2638 5.04652 20.1107 5.04652C20.9575 5.04652 21.6441 5.73313 21.6441 6.57995ZM25.9983 8.13626C25.9011 6.08216 25.4319 4.26265 23.9271 2.76355C22.428 1.26446 20.6085 0.795281 18.5544 0.69229C16.4373 0.572134 10.0919 0.572134 7.97488 0.69229C5.9265 0.789559 4.10699 1.25874 2.60218 2.75783C1.09736 4.25693 0.633904 6.07643 0.530913 8.13053C0.410757 10.2476 0.410757 16.593 0.530913 18.71C0.628182 20.7641 1.09736 22.5836 2.60218 24.0827C4.10699 25.5818 5.92078 26.051 7.97488 26.154C10.0919 26.2741 16.4373 26.2741 18.5544 26.154C20.6085 26.0567 22.428 25.5875 23.9271 24.0827C25.4261 22.5836 25.8953 20.7641 25.9983 18.71C26.1185 16.593 26.1185 10.2533 25.9983 8.13626ZM23.2633 20.9815C22.817 22.103 21.9531 22.967 20.8259 23.419C19.138 24.0884 15.1328 23.9339 13.2675 23.9339C11.4022 23.9339 7.39126 24.0827 5.70908 23.419C4.58762 22.9727 3.72364 22.1087 3.27162 20.9815C2.60218 19.2936 2.75666 15.2884 2.75666 13.4231C2.75666 11.5578 2.6079 7.54692 3.27162 5.86473C3.71791 4.74327 4.5819 3.87929 5.70908 3.42727C7.39699 2.75783 11.4022 2.91232 13.2675 2.91232C15.1328 2.91232 19.1437 2.76355 20.8259 3.42727C21.9473 3.87357 22.8113 4.73755 23.2633 5.86473C23.9328 7.55264 23.7783 11.5578 23.7783 13.4231C23.7783 15.2884 23.9328 19.2993 23.2633 20.9815Z"
      fill="#000000"
    />
  </svg>