<svg
    width="30"
    height="29"
    viewBox="0 0 30 29"
    fill="none"
    xmlns="http://www.w3.org/2000/svg"
  >
    <path
      d="M12.292 17.3942C11.4852 17.3942 10.8362 16.7452 10.8362 15.9558C10.8362 15.149 11.4852 14.5 12.292 14.5C13.0872 14.5 13.7303 15.149 13.7303 15.9558C13.7303 16.751 13.0813 17.3942 12.292 17.3942ZM29.9785 14.5C29.9785 22.5101 23.4886 29 15.4785 29C7.46843 29 0.978516 22.5101 0.978516 14.5C0.978516 6.48992 7.46843 0 15.4785 0C23.4886 0 29.9785 6.48992 29.9785 14.5ZM22.2432 12.0911C21.6936 12.0911 21.2084 12.3192 20.8517 12.6758C19.542 11.7696 17.7763 11.1849 15.8176 11.1206L16.835 6.54254L20.0741 7.27339C20.0741 8.06855 20.7231 8.71169 21.5124 8.71169C22.3192 8.71169 22.9682 8.05101 22.9682 7.25585C22.9682 6.46069 22.3192 5.8 21.5124 5.8C20.9452 5.8 20.46 6.13911 20.2202 6.60685L16.642 5.81169C16.4666 5.76492 16.2854 5.89355 16.2386 6.06895L15.1219 11.1206C13.1807 11.2024 11.4325 11.7812 10.1229 12.6875C9.76622 12.3133 9.26339 12.0911 8.7138 12.0911C6.67327 12.0911 6.00674 14.8333 7.87186 15.7629C7.80755 16.0552 7.77247 16.3593 7.77247 16.6692C7.77247 19.7446 11.2338 22.2353 15.4902 22.2353C19.7642 22.2353 23.2255 19.7446 23.2255 16.6692C23.2255 16.3593 23.1904 16.0377 23.1144 15.7454C24.9444 14.8099 24.2721 12.0911 22.2432 12.0911ZM18.2148 18.8851C17.1507 19.9492 13.7654 19.9317 12.7422 18.8851C12.6136 18.7565 12.3856 18.7565 12.2569 18.8851C12.1108 19.0312 12.1108 19.2593 12.2569 19.3879C13.59 20.721 17.3612 20.721 18.7001 19.3879C18.8463 19.2593 18.8463 19.0312 18.7001 18.8851C18.5715 18.7565 18.3434 18.7565 18.2148 18.8851ZM18.665 14.5C17.8698 14.5 17.2267 15.149 17.2267 15.9558C17.2267 16.751 17.8757 17.3942 18.665 17.3942C19.4719 17.3942 20.1209 16.7452 20.1209 15.9558C20.1209 15.149 19.4777 14.5 18.665 14.5Z"
      fill="#000000"
    />
  </svg>