 <svg
    width="30"
    height="25"
    viewBox="0 0 30 25"
    fill="none"
    xmlns="http://www.w3.org/2000/svg"
  >
    <path
      d="M26.8583 6.66142C26.8773 6.92733 26.8773 7.1933 26.8773 7.45921C26.8773 15.5699 20.7041 24.9152 9.42132 24.9152C5.94529 24.9152 2.71624 23.9085 0 22.161C0.493877 22.218 0.968694 22.237 1.48157 22.237C4.34971 22.237 6.98999 21.2683 9.0984 19.6158C6.40117 19.5588 4.1408 17.7923 3.36201 15.3609C3.74194 15.4179 4.1218 15.4559 4.52073 15.4559C5.07155 15.4559 5.62243 15.3799 6.13525 15.247C3.32407 14.6771 1.2156 12.2078 1.2156 9.2257V9.14975C2.03234 9.60562 2.98215 9.89053 3.98879 9.92848C2.33625 8.82677 1.25361 6.94633 1.25361 4.81892C1.25361 3.67927 1.55746 2.63457 2.08934 1.72282C5.1095 5.44576 9.64922 7.87702 14.7397 8.14299C14.6448 7.68712 14.5878 7.2123 14.5878 6.73743C14.5878 3.35635 17.323 0.602173 20.723 0.602173C22.4895 0.602173 24.085 1.34296 25.2057 2.53962C26.5923 2.27371 27.9219 1.76083 29.0996 1.05805C28.6437 2.48267 27.675 3.67933 26.4024 4.43906C27.6371 4.30616 28.8337 3.96418 29.9354 3.48937C29.0997 4.70497 28.055 5.78762 26.8583 6.66142Z"
      fill="#000000"
    />
  </svg>